<svg xmlns="http://www.w3.org/2000/svg" width="20.568" height="24.683" viewBox="0 0 20.568 24.683"><defs><style>.a{fill:#222;}</style></defs><g transform="translate(-42.675)"><g transform="translate(42.675)"><path class="a" d="M63.17,20.819,61.4,17.875a8.743,8.743,0,0,1-1.246-4.5V10.8a7.208,7.208,0,0,0-5.142-6.9V2.057a2.057,2.057,0,1,0-4.114,0V3.9a7.208,7.208,0,0,0-5.142,6.9v2.578a8.748,8.748,0,0,1-1.245,4.5l-1.766,2.943a.515.515,0,0,0,.44.78h19.54a.514.514,0,0,0,.441-.779Z" transform="translate(-42.675)"/></g><g transform="translate(49.72 22.626)"><path class="a" d="M188.815,469.333a3.578,3.578,0,0,0,6.477,0Z" transform="translate(-188.815 -469.333)"/></g></g></svg>