<svg xmlns="http://www.w3.org/2000/svg" width="14.326" height="11.256" viewBox="0 0 14.326 11.256"><defs><style>.a{fill:#cb001b;}</style></defs><g transform="translate(0 0)"><path class="a" d="M1.375,58.29q.272.192,1.639,1.139t2.095,1.459l.34.244q.26.188.432.3t.416.26a2.412,2.412,0,0,0,.46.216,1.267,1.267,0,0,0,.4.072h.016a1.268,1.268,0,0,0,.4-.072,2.415,2.415,0,0,0,.46-.216q.244-.144.416-.26t.432-.3q.26-.188.34-.244l3.741-2.6a3.8,3.8,0,0,0,.975-.983,2.111,2.111,0,0,0,.392-1.207,1.29,1.29,0,0,0-1.279-1.279H1.279a1.142,1.142,0,0,0-.947.416A1.614,1.614,0,0,0,0,56.275a1.867,1.867,0,0,0,.44,1.091A3.968,3.968,0,0,0,1.375,58.29Z" transform="translate(0 -54.82)"/><path class="a" d="M13.527,185.132q-2.622,1.775-3.981,2.758-.456.336-.739.524a4.563,4.563,0,0,1-.755.384,2.3,2.3,0,0,1-.879.2H7.155a2.3,2.3,0,0,1-.879-.2,4.566,4.566,0,0,1-.755-.384q-.284-.188-.739-.524Q3.7,187.1.808,185.132a4.236,4.236,0,0,1-.808-.7v6.347a1.231,1.231,0,0,0,.376.9,1.232,1.232,0,0,0,.9.376H13.047a1.283,1.283,0,0,0,1.279-1.279v-6.347A4.409,4.409,0,0,1,13.527,185.132Z" transform="translate(0 -180.808)"/></g></svg>