<svg xmlns="http://www.w3.org/2000/svg" width="19.5" height="19.502" viewBox="0 0 19.5 19.502"><defs><style>.a{fill:#6d6d6d;}</style></defs><path class="a" d="M18.976,8.482h0L11.019.525a1.795,1.795,0,0,0-2.539,0L.529,8.476l-.008.008a1.795,1.795,0,0,0,1.195,3.059l.055,0h.317V17.4a2.1,2.1,0,0,0,2.1,2.1H7.3a.571.571,0,0,0,.571-.571V14.34a.96.96,0,0,1,.959-.959h1.836a.96.96,0,0,1,.959.959v4.59a.571.571,0,0,0,.571.571H15.31a2.1,2.1,0,0,0,2.1-2.1V11.546h.294a1.8,1.8,0,0,0,1.27-3.064Zm0,0" transform="translate(0 0.001)"/></svg>