<svg xmlns="http://www.w3.org/2000/svg" width="17.423" height="17.422" viewBox="0 0 17.423 17.422"><defs><style>.a{fill:#6d6d6d;}</style></defs><path class="a" d="M10.889,9.441a.726.726,0,0,0-.726.726v2.9a.727.727,0,0,1-.726.726H7.259V2.908a1.463,1.463,0,0,0-.989-1.38l-.215-.072H9.437a.727.727,0,0,1,.726.726V4.359a.726.726,0,1,0,1.452,0V2.182A2.18,2.18,0,0,0,9.437,0h-7.8A.57.57,0,0,0,1.556.02C1.521.017,1.487,0,1.452,0A1.453,1.453,0,0,0,0,1.456V14.522A1.463,1.463,0,0,0,.989,15.9l4.369,1.456a1.5,1.5,0,0,0,.45.068,1.453,1.453,0,0,0,1.452-1.452v-.726H9.437a2.18,2.18,0,0,0,2.178-2.178v-2.9a.726.726,0,0,0-.726-.726Zm0,0" transform="translate(0 -0.004)"/><path class="a" d="M285.1,109.782l-2.9-2.9a.726.726,0,0,0-1.239.513v2.178h-2.9a.726.726,0,1,0,0,1.452h2.9V113.2a.726.726,0,0,0,1.239.513l2.9-2.9A.725.725,0,0,0,285.1,109.782Zm0,0" transform="translate(-267.895 -103.036)"/></svg>