<svg xmlns="http://www.w3.org/2000/svg" width="17.425" height="14.348" viewBox="0 0 17.425 14.348"><defs><style>.a{fill:#6d6d6d;}</style></defs><path class="a" d="M13.851.5H3.573A3.577,3.577,0,0,0,0,4.073V9.592a3.516,3.516,0,0,0,2.528,3.38L4.254,14.7a.51.51,0,0,0,.722,0l1.583-1.583h7.292a3.577,3.577,0,0,0,3.573-3.573V4.073A3.577,3.577,0,0,0,13.851.5ZM4.961,7.71a.51.51,0,0,1,.51-.51h6.483a.51.51,0,0,1,0,1.021H5.471a.51.51,0,0,1-.51-.51Zm6.993-1.294H5.471a.51.51,0,0,1,0-1.021h6.483a.51.51,0,0,1,0,1.021Zm0,0" transform="translate(0 -0.5)"/></svg>