<svg xmlns="http://www.w3.org/2000/svg" width="21.332" height="27.421" viewBox="0 0 21.332 27.421"><defs><style>.a{fill:#cb001b;}</style></defs><path class="a" d="M127.12,1.655H131.7v.771h1.655V1.547A1.548,1.548,0,0,0,131.811,0h-4.8a1.549,1.549,0,0,0-1.546,1.547v.879h1.655Zm0,0" transform="translate(-118.745 0)"/><path class="a" d="M56.756,167.75H41.219a.729.729,0,0,0-.727.788l1.3,16.062a1.725,1.725,0,0,0,1.719,1.587H54.465a1.725,1.725,0,0,0,1.719-1.587l1.3-16.061a.729.729,0,0,0-.726-.788ZM44.981,184.473l-.052,0a.827.827,0,0,1-.825-.777l-.814-13.186a.828.828,0,0,1,1.652-.1l.814,13.186a.827.827,0,0,1-.775.877Zm4.843-.826a.828.828,0,0,1-1.655,0V170.461a.828.828,0,0,1,1.655,0Zm4.861-13.137L53.908,183.7a.827.827,0,0,1-.825.779h-.049a.828.828,0,0,1-.777-.875l.777-13.186a.828.828,0,1,1,1.652.1Zm0,0" transform="translate(-38.322 -158.766)"/><path class="a" d="M21.3,78.56l-.544-1.629a1.052,1.052,0,0,0-1-.719H1.578a1.052,1.052,0,0,0-1,.719L.036,78.56a.684.684,0,0,0,.648.9H20.649a.674.674,0,0,0,.362-.1.682.682,0,0,0,.286-.794Zm0,0" transform="translate(0 -72.13)"/></svg>