<svg xmlns="http://www.w3.org/2000/svg" width="19.5" height="23.373" viewBox="0 0 19.5 23.373"><defs><style>.a{fill:#6d6d6d;}</style></defs><path class="a" d="M92.661,11.259a5.447,5.447,0,0,0,3.98-1.649,5.447,5.447,0,0,0,1.649-3.98,5.448,5.448,0,0,0-1.649-3.98,5.628,5.628,0,0,0-7.961,0,5.447,5.447,0,0,0-1.649,3.98,5.447,5.447,0,0,0,1.649,3.98A5.448,5.448,0,0,0,92.661,11.259Zm0,0" transform="translate(-83.059 0)"/><path class="a" d="M19.452,254a13.905,13.905,0,0,0-.189-1.477,11.636,11.636,0,0,0-.363-1.485,7.334,7.334,0,0,0-.61-1.385,5.226,5.226,0,0,0-.92-1.2,4.058,4.058,0,0,0-1.322-.831,4.569,4.569,0,0,0-1.688-.305,1.713,1.713,0,0,0-.915.388c-.274.179-.6.386-.953.614a5.461,5.461,0,0,1-1.233.543,4.789,4.789,0,0,1-3.017,0,5.449,5.449,0,0,1-1.232-.543c-.355-.227-.676-.433-.954-.615a1.711,1.711,0,0,0-.915-.388,4.564,4.564,0,0,0-1.688.306,4.055,4.055,0,0,0-1.322.831,5.227,5.227,0,0,0-.92,1.2,7.349,7.349,0,0,0-.61,1.385,11.665,11.665,0,0,0-.363,1.485A13.855,13.855,0,0,0,.047,254c-.031.447-.047.911-.047,1.38a3.881,3.881,0,0,0,1.153,2.936,4.149,4.149,0,0,0,2.97,1.083H15.377a4.148,4.148,0,0,0,2.97-1.083,3.879,3.879,0,0,0,1.153-2.936c0-.471-.016-.935-.047-1.381Zm0,0" transform="translate(0 -236.026)"/></svg>